<?xml version="1.0" encoding="UTF-8" standalone="no" ?>
<!DOCTYPE svg PUBLIC "-//W3C//DTD SVG 1.1//EN" "http://www.w3.org/Graphics/SVG/1.1/DTD/svg11.dtd">
<svg xmlns="http://www.w3.org/2000/svg" xmlns:xlink="http://www.w3.org/1999/xlink" version="1.1" width="1080" height="1080" viewBox="0 0 1080 1080" xml:space="preserve">
<desc>Created with Fabric.js 5.2.4</desc>
<defs>
</defs>
<g transform="matrix(1 0 0 1 540 540)" id="f789150b-5f62-4b11-bf30-6df27520e799"  >
<rect style="stroke: none; stroke-width: 1; stroke-dasharray: none; stroke-linecap: butt; stroke-dashoffset: 0; stroke-linejoin: miter; stroke-miterlimit: 4; fill: rgb(255,255,255); fill-rule: nonzero; opacity: 1; visibility: hidden;" vector-effect="non-scaling-stroke"  x="-540" y="-540" rx="0" ry="0" width="1080" height="1080" />
</g>
<g transform="matrix(1 0 0 1 540 540)" id="0d037623-78d7-44a9-a85a-af014f602231"  >
</g>
<g transform="matrix(0.01 0 0 -0.01 540 540)"  >
<path style="stroke: rgb(255,255,255); stroke-width: 0.01; stroke-dasharray: none; stroke-linecap: butt; stroke-dashoffset: 0; stroke-linejoin: miter; stroke-miterlimit: 4; fill: rgb(255,255,255); fill-rule: nonzero; opacity: 1;" vector-effect="non-scaling-stroke"  transform=" translate(-5000.02, -110.04)" d="M 1685.8 4989.2 C 1432.1 4930.3 1186.5 4723.3 1064.6999999999998 4469.599999999999 L 989.5999999999998 4311.299999999999 L 983.4999999999998 170.29999999999927 C 979.3999999999997 -2602.500000000001 985.4999999999998 -4003.1000000000004 999.6999999999998 -4068.1000000000004 C 1056.4999999999998 -4336 1257.4999999999998 -4581.700000000001 1523.3999999999999 -4707.5 L 1679.6999999999998 -4782.6 L 4937.7 -4788.700000000001 C 7111.7 -4792.800000000001 8228.1 -4786.700000000001 8293.1 -4772.500000000001 C 8619.9 -4703.500000000001 8920.300000000001 -4407.100000000001 8995.5 -4080.300000000001 C 9009.7 -4021.400000000001 9017.8 -3030.800000000001 9017.8 -1270.900000000001 C 9017.8 1345.599999999999 9015.8 1453.199999999999 8979.199999999999 1530.2999999999988 C 8930.499999999998 1631.7999999999988 5605.5999999999985 4958.799999999999 5520.299999999999 4991.199999999999 C 5449.2 5017.6 1797.5 5015.6 1685.8 4989.2 z M 4856.5 3087.2 C 4856.5 1654.1 4858.5 1635.7999999999997 4972.2 1438.8999999999999 C 5061.5 1286.6999999999998 5225.9 1140.5 5398.5 1057.2999999999997 L 5556.8 982.1999999999997 L 6983.8 976.0999999999997 L 8408.8 969.9999999999997 L 8408.8 -1524.7000000000003 C 8408.8 -3416.6000000000004 8402.699999999999 -4031.6000000000004 8384.4 -4072.2000000000003 C 8331.6 -4189.900000000001 8532.6 -4183.8 4998.599999999999 -4183.8 C 1464.5999999999985 -4183.8 1665.4999999999995 -4189.900000000001 1612.7999999999993 -4072.2000000000003 C 1574.1999999999994 -3991.0000000000005 1578.2999999999993 4230 1616.8999999999992 4299 C 1675.7999999999993 4404.6 1629.0999999999992 4400.5 3299.699999999999 4402.5 L 4856.5999999999985 4402.5 L 4856.5999999999985 3087.2 z M 6866.1 1585.1 C 5514.200000000001 1581 5528.400000000001 1579 5485.8 1694.6999999999998 C 5473.6 1725.1999999999998 5465.5 2246.7999999999997 5465.5 2987.7 L 5465.5 4230 L 6784.9 2910.6 L 8104.299999999999 1591.1999999999998 L 6866.1 1585.1 z" stroke-linecap="round" />
</g>
</svg>